<svg xmlns="http://www.w3.org/2000/svg" width="35" height="35" viewBox="0 0 35 35">
  <g fill="#919196" fill-rule="evenodd">
    <path fill-opacity=".05" fill-rule="nonzero" d="M10.521,2.819 L14.086,8.9935 C14.328865,9.395191 14.335639,9.896781 14.103712,10.304885 C13.871786,10.712988 13.437385,10.963857 12.967993,10.960769 C12.4986,10.957682 12.067538,10.701119 11.841,10.29 L8.2755,4.1155 C7.924723,3.496107 8.138927,2.709737 8.755377,2.353813 C9.371827,1.997889 10.159954,2.205536 10.521,2.819 Z"/>
    <path fill-opacity=".1" d="M4.1155,8.2755 L10.29,11.8405 C10.701119,12.067038 10.957682,12.4981 10.960769,12.967493 C10.963857,13.436885 10.712988,13.871286 10.304885,14.103212 C9.896781,14.335139 9.395191,14.328365 8.9935,14.0855 L2.819,10.521 C2.205536,10.159954 1.997889,9.371827 2.353813,8.755377 C2.709737,8.138927 3.496107,7.924723 4.1155,8.2755 Z"/>
    <path fill-opacity=".19" d="M1,16.203 L8.719,16.203 C9.271285,16.203 9.719,16.650715 9.719,17.203 L9.719,17.797 C9.719,18.349285 9.271285,18.797 8.719,18.797 L1,18.797 C0.447715,18.797 0,18.349285 0,17.797 L0,17.203 C0,16.650715 0.447715,16.203 1,16.203 Z"/>
    <path fill-opacity=".28" d="M10.7645,21.389 C10.936391,21.686698 10.982966,22.040492 10.893978,22.372534 C10.80499,22.704576 10.587729,22.987661 10.29,23.1595 L4.1155,26.7245 C3.497257,27.065169 2.720087,26.848637 2.367071,26.23736 C2.014055,25.626083 2.214936,24.844721 2.819,24.4795 L8.9935,20.9145 C9.613581,20.556508 10.406465,20.768944 10.7645,21.389 Z"/>
    <path fill-opacity=".37" d="M13.611,24.236 C14.231056,24.594035 14.443492,25.386919 14.0855,26.007 L10.5205,32.1815 C10.290976,32.586788 9.86169,32.837814 9.395924,32.839097 C8.930158,32.840381 8.499495,32.591726 8.26774,32.18771 C8.035985,31.783693 8.038756,31.286408 8.275,30.885 L11.84,24.7105 C12.011841,24.412636 12.295016,24.195277 12.627179,24.106282 C12.959342,24.017286 13.313257,24.06395 13.611,24.236 Z"/>
    <path fill-opacity=".46" d="M17.203,25.2815 L17.797,25.2815 C18.349285,25.2815 18.797,25.729215 18.797,26.2815 L18.797,34 C18.797,34.552285 18.349285,35 17.797,35 L17.203,35 C16.650715,35 16.203,34.552285 16.203,34 L16.203,26.2815 C16.203,25.729215 16.650715,25.2815 17.203,25.2815 Z"/>
    <path fill-opacity=".55" d="M23.1595,24.7105 L26.7245,30.885 C26.967365,31.286691 26.974139,31.788281 26.742212,32.196385 C26.510286,32.604488 26.075885,32.855357 25.606493,32.852269 C25.1371,32.849182 24.706038,32.592619 24.4795,32.1815 L20.9145,26.007 C20.671635,25.605309 20.664861,25.103719 20.896788,24.695615 C21.128714,24.287512 21.563115,24.036643 22.032507,24.039731 C22.5019,24.042818 22.932962,24.299381 23.1595,24.7105 Z"/>
    <path fill-opacity=".64" d="M26.0065,20.9145 L32.181,24.4795 C32.592119,24.706038 32.848682,25.1371 32.851769,25.606493 C32.854857,26.075885 32.603988,26.510286 32.195885,26.742212 C31.787781,26.974139 31.286191,26.967365 30.8845,26.7245 L24.71,23.1595 C24.298881,22.932962 24.042318,22.5019 24.039231,22.032507 C24.036143,21.563115 24.287012,21.128714 24.695115,20.896788 C25.103219,20.664861 25.604809,20.671635 26.0065,20.9145 Z"/>
    <path fill-opacity=".73" d="M26.2815,16.203 L34,16.203 C34.552285,16.203 35,16.650715 35,17.203 L35,17.797 C35,18.349285 34.552285,18.797 34,18.797 L26.2815,18.797 C25.729215,18.797 25.2815,18.349285 25.2815,17.797 L25.2815,17.203 C25.2815,16.650715 25.729215,16.203 26.2815,16.203 Z"/>
    <path fill-opacity=".82" d="M32.6555,8.75 C32.827391,9.047698 32.873966,9.401492 32.784978,9.733534 C32.69599,10.065576 32.478729,10.348661 32.181,10.5205 L26.0065,14.0855 C25.604809,14.328365 25.103219,14.335139 24.695115,14.103212 C24.287012,13.871286 24.036143,13.436885 24.039231,12.967493 C24.042318,12.4981 24.298881,12.067038 24.71,11.8405 L30.8845,8.2755 C31.504581,7.917508 32.297465,8.129944 32.6555,8.75 Z"/>
    <path fill-opacity=".91" d="M26.25,2.1736884 C26.870056,2.5317234 27.082492,3.3246074 26.7245,3.9446884 L23.1595,10.1191884 C22.932962,10.5303074 22.5019,10.7868704 22.032507,10.7899574 C21.563115,10.7930454 21.128714,10.5421764 20.896788,10.1340734 C20.664861,9.7259694 20.671635,9.2243794 20.9145,8.8226884 L24.4795,2.6481884 C24.837521,2.0284324 25.63003,1.8160364 26.25,2.1736884 Z"/>
    <path d="M17.203,0 L17.797,0 C18.349285,0 18.797,0.447715 18.797,1 L18.797,8.719 C18.797,9.271285 18.349285,9.719 17.797,9.719 L17.203,9.719 C16.650715,9.719 16.203,9.271285 16.203,8.719 L16.203,1 C16.203,0.447715 16.650715,0 17.203,0 Z"/>
  </g>
</svg>
